<mxfile host="app.diagrams.net" agent="Mozilla/5.0 (X11; Linux x86_64) AppleWebKit/537.36 (KHTML, like Gecko) Chrome/134.0.0.0 Safari/537.36" version="27.0.9">
  <diagram name="Page-1" id="58cdce13-f638-feb5-8d6f-7d28b1aa9fa0">
    <mxGraphModel dx="1426" dy="791" grid="1" gridSize="10" guides="1" tooltips="1" connect="1" arrows="1" fold="1" page="1" pageScale="1" pageWidth="1100" pageHeight="850" background="none" math="0" shadow="0">
      <root>
        <mxCell id="0" />
        <mxCell id="1" parent="0" />
        <mxCell id="382b91b5511bd0f7-1" value="" style="ellipse;html=1;shape=startState;fillColor=#000000;strokeColor=#ff0000;rounded=1;shadow=0;comic=0;labelBackgroundColor=none;fontFamily=Verdana;fontSize=12;fontColor=#000000;align=center;direction=south;" parent="1" vertex="1">
          <mxGeometry x="295" y="30" width="30" height="30" as="geometry" />
        </mxCell>
        <mxCell id="2a3bc250acf0617d-9" style="edgeStyle=orthogonalEdgeStyle;html=1;labelBackgroundColor=none;endArrow=open;endSize=8;strokeColor=#ff0000;fontFamily=Verdana;fontSize=12;align=left;" parent="1" source="382b91b5511bd0f7-1" target="382b91b5511bd0f7-8" edge="1">
          <mxGeometry relative="1" as="geometry">
            <mxPoint x="565" y="90" as="targetPoint" />
            <Array as="points">
              <mxPoint x="375" y="45" />
            </Array>
          </mxGeometry>
        </mxCell>
        <mxCell id="K7TAK-xbUGXbJQmpDENe-30" value="" style="edgeStyle=orthogonalEdgeStyle;rounded=0;orthogonalLoop=1;jettySize=auto;html=1;strokeColor=#FF0000;" edge="1" parent="1" source="382b91b5511bd0f7-8" target="K7TAK-xbUGXbJQmpDENe-29">
          <mxGeometry relative="1" as="geometry" />
        </mxCell>
        <mxCell id="K7TAK-xbUGXbJQmpDENe-33" value="find file" style="edgeLabel;html=1;align=center;verticalAlign=middle;resizable=0;points=[];" vertex="1" connectable="0" parent="K7TAK-xbUGXbJQmpDENe-30">
          <mxGeometry x="0.275" y="-1" relative="1" as="geometry">
            <mxPoint x="1" y="-11" as="offset" />
          </mxGeometry>
        </mxCell>
        <mxCell id="K7TAK-xbUGXbJQmpDENe-49" style="edgeStyle=orthogonalEdgeStyle;rounded=1;orthogonalLoop=1;jettySize=auto;html=1;exitX=0.75;exitY=0;exitDx=0;exitDy=0;entryX=0.5;entryY=1;entryDx=0;entryDy=0;curved=0;strokeColor=#FF0000;" edge="1" parent="1" source="382b91b5511bd0f7-8" target="K7TAK-xbUGXbJQmpDENe-48">
          <mxGeometry relative="1" as="geometry" />
        </mxCell>
        <mxCell id="K7TAK-xbUGXbJQmpDENe-50" value="Stop signal" style="edgeLabel;html=1;align=center;verticalAlign=middle;resizable=0;points=[];" vertex="1" connectable="0" parent="K7TAK-xbUGXbJQmpDENe-49">
          <mxGeometry x="-0.5429" y="-2" relative="1" as="geometry">
            <mxPoint as="offset" />
          </mxGeometry>
        </mxCell>
        <mxCell id="382b91b5511bd0f7-8" value="Wainting&lt;div&gt;&amp;nbsp;for file with sms&lt;/div&gt;" style="rounded=1;whiteSpace=wrap;html=1;arcSize=24;fillColor=#ffffc0;strokeColor=#ff0000;shadow=0;comic=0;labelBackgroundColor=none;fontFamily=Verdana;fontSize=12;fontColor=#000000;align=center;" parent="1" vertex="1">
          <mxGeometry x="345" y="90" width="120" height="60" as="geometry" />
        </mxCell>
        <mxCell id="K7TAK-xbUGXbJQmpDENe-32" value="" style="edgeStyle=orthogonalEdgeStyle;rounded=0;orthogonalLoop=1;jettySize=auto;html=1;strokeColor=#FF0000;" edge="1" parent="1" source="K7TAK-xbUGXbJQmpDENe-29" target="K7TAK-xbUGXbJQmpDENe-93">
          <mxGeometry relative="1" as="geometry">
            <mxPoint x="405" y="350" as="targetPoint" />
          </mxGeometry>
        </mxCell>
        <mxCell id="K7TAK-xbUGXbJQmpDENe-34" value="get sms text" style="edgeLabel;html=1;align=center;verticalAlign=middle;resizable=0;points=[];" vertex="1" connectable="0" parent="K7TAK-xbUGXbJQmpDENe-32">
          <mxGeometry x="0.15" y="-2" relative="1" as="geometry">
            <mxPoint x="2" y="-6" as="offset" />
          </mxGeometry>
        </mxCell>
        <mxCell id="K7TAK-xbUGXbJQmpDENe-42" style="edgeStyle=orthogonalEdgeStyle;rounded=1;orthogonalLoop=1;jettySize=auto;html=1;exitX=0;exitY=0.5;exitDx=0;exitDy=0;curved=0;strokeColor=#FF0000;" edge="1" parent="1" source="K7TAK-xbUGXbJQmpDENe-29" target="K7TAK-xbUGXbJQmpDENe-99">
          <mxGeometry relative="1" as="geometry">
            <mxPoint x="140" y="250" as="targetPoint" />
            <Array as="points">
              <mxPoint x="240" y="260" />
              <mxPoint x="240" y="260" />
            </Array>
          </mxGeometry>
        </mxCell>
        <mxCell id="K7TAK-xbUGXbJQmpDENe-43" value="Invalid file" style="edgeLabel;html=1;align=center;verticalAlign=middle;resizable=0;points=[];" vertex="1" connectable="0" parent="K7TAK-xbUGXbJQmpDENe-42">
          <mxGeometry x="-0.44" y="2" relative="1" as="geometry">
            <mxPoint x="-22" y="-2" as="offset" />
          </mxGeometry>
        </mxCell>
        <mxCell id="K7TAK-xbUGXbJQmpDENe-29" value="Parse file" style="rounded=1;whiteSpace=wrap;html=1;arcSize=24;fillColor=#ffffc0;strokeColor=#ff0000;shadow=0;comic=0;labelBackgroundColor=none;fontFamily=Verdana;fontSize=12;fontColor=#000000;align=center;" vertex="1" parent="1">
          <mxGeometry x="345" y="230" width="120" height="60" as="geometry" />
        </mxCell>
        <mxCell id="K7TAK-xbUGXbJQmpDENe-36" value="" style="edgeStyle=orthogonalEdgeStyle;rounded=1;orthogonalLoop=1;jettySize=auto;html=1;strokeColor=#FF0000;curved=0;entryX=0.25;entryY=1;entryDx=0;entryDy=0;" edge="1" parent="1" source="K7TAK-xbUGXbJQmpDENe-51" target="K7TAK-xbUGXbJQmpDENe-93">
          <mxGeometry relative="1" as="geometry">
            <mxPoint x="375" y="450" as="sourcePoint" />
            <Array as="points">
              <mxPoint x="375" y="490" />
              <mxPoint x="375" y="490" />
            </Array>
          </mxGeometry>
        </mxCell>
        <mxCell id="K7TAK-xbUGXbJQmpDENe-37" value="sending failed" style="edgeLabel;html=1;align=center;verticalAlign=middle;resizable=0;points=[];" vertex="1" connectable="0" parent="K7TAK-xbUGXbJQmpDENe-36">
          <mxGeometry x="0.05" y="1" relative="1" as="geometry">
            <mxPoint x="-19" y="6" as="offset" />
          </mxGeometry>
        </mxCell>
        <mxCell id="K7TAK-xbUGXbJQmpDENe-38" style="edgeStyle=orthogonalEdgeStyle;rounded=1;orthogonalLoop=1;jettySize=auto;html=1;entryX=1;entryY=0.5;entryDx=0;entryDy=0;curved=0;strokeColor=#FF0000;" edge="1" parent="1" source="K7TAK-xbUGXbJQmpDENe-51" target="382b91b5511bd0f7-8">
          <mxGeometry relative="1" as="geometry">
            <mxPoint x="465" y="480" as="sourcePoint" />
            <Array as="points">
              <mxPoint x="535" y="120" />
            </Array>
          </mxGeometry>
        </mxCell>
        <mxCell id="K7TAK-xbUGXbJQmpDENe-39" value="Sending success" style="edgeLabel;html=1;align=center;verticalAlign=middle;resizable=0;points=[];" vertex="1" connectable="0" parent="K7TAK-xbUGXbJQmpDENe-38">
          <mxGeometry x="-0.081" y="-2" relative="1" as="geometry">
            <mxPoint as="offset" />
          </mxGeometry>
        </mxCell>
        <mxCell id="K7TAK-xbUGXbJQmpDENe-40" style="edgeStyle=orthogonalEdgeStyle;rounded=1;orthogonalLoop=1;jettySize=auto;html=1;exitX=0.5;exitY=0;exitDx=0;exitDy=0;entryX=0;entryY=0.5;entryDx=0;entryDy=0;curved=0;strokeColor=#FF0000;" edge="1" parent="1" source="K7TAK-xbUGXbJQmpDENe-99" target="382b91b5511bd0f7-8">
          <mxGeometry relative="1" as="geometry">
            <mxPoint x="80" y="220" as="sourcePoint" />
            <Array as="points">
              <mxPoint x="130" y="110" />
              <mxPoint x="345" y="110" />
            </Array>
          </mxGeometry>
        </mxCell>
        <mxCell id="K7TAK-xbUGXbJQmpDENe-41" value="Error handled" style="edgeLabel;html=1;align=center;verticalAlign=middle;resizable=0;points=[];" vertex="1" connectable="0" parent="K7TAK-xbUGXbJQmpDENe-40">
          <mxGeometry x="-0.0846" y="1" relative="1" as="geometry">
            <mxPoint x="46" y="1" as="offset" />
          </mxGeometry>
        </mxCell>
        <mxCell id="K7TAK-xbUGXbJQmpDENe-48" value="" style="ellipse;html=1;shape=startState;fillColor=#000000;strokeColor=#ff0000;rounded=1;shadow=0;comic=0;labelBackgroundColor=none;fontFamily=Verdana;fontSize=12;fontColor=#000000;align=center;direction=south;" vertex="1" parent="1">
          <mxGeometry x="495" y="30" width="30" height="30" as="geometry" />
        </mxCell>
        <mxCell id="K7TAK-xbUGXbJQmpDENe-51" value="&lt;span style=&quot;font-family: Verdana;&quot;&gt;Processing by&amp;nbsp;&lt;/span&gt;&lt;span style=&quot;font-family: Verdana; background-color: transparent; color: light-dark(rgb(0, 0, 0), rgb(255, 255, 255));&quot;&gt;Tsmodem&lt;/span&gt;" style="swimlane;whiteSpace=wrap;html=1;" vertex="1" parent="1">
          <mxGeometry x="250" y="510" width="730" height="250" as="geometry">
            <mxRectangle x="250" y="510" width="160" height="30" as="alternateBounds" />
          </mxGeometry>
        </mxCell>
        <mxCell id="K7TAK-xbUGXbJQmpDENe-54" style="edgeStyle=orthogonalEdgeStyle;rounded=0;orthogonalLoop=1;jettySize=auto;html=1;exitX=1;exitY=0.5;exitDx=0;exitDy=0;" edge="1" parent="K7TAK-xbUGXbJQmpDENe-51" source="K7TAK-xbUGXbJQmpDENe-55" target="K7TAK-xbUGXbJQmpDENe-53">
          <mxGeometry relative="1" as="geometry" />
        </mxCell>
        <mxCell id="K7TAK-xbUGXbJQmpDENe-64" style="edgeStyle=orthogonalEdgeStyle;rounded=0;orthogonalLoop=1;jettySize=auto;html=1;exitX=1;exitY=0.5;exitDx=0;exitDy=0;" edge="1" parent="K7TAK-xbUGXbJQmpDENe-51" source="K7TAK-xbUGXbJQmpDENe-52" target="K7TAK-xbUGXbJQmpDENe-55">
          <mxGeometry relative="1" as="geometry">
            <mxPoint x="290" y="20" as="targetPoint" />
          </mxGeometry>
        </mxCell>
        <mxCell id="K7TAK-xbUGXbJQmpDENe-52" value="" style="ellipse;html=1;shape=startState;fillColor=#000000;strokeColor=#ff0000;rounded=1;shadow=0;comic=0;labelBackgroundColor=none;fontFamily=Verdana;fontSize=12;fontColor=#000000;align=center;direction=south;" vertex="1" parent="K7TAK-xbUGXbJQmpDENe-51">
          <mxGeometry x="75" y="30" width="30" height="30" as="geometry" />
        </mxCell>
        <mxCell id="K7TAK-xbUGXbJQmpDENe-59" style="edgeStyle=orthogonalEdgeStyle;rounded=0;orthogonalLoop=1;jettySize=auto;html=1;exitX=1;exitY=0.5;exitDx=0;exitDy=0;" edge="1" parent="K7TAK-xbUGXbJQmpDENe-51" source="K7TAK-xbUGXbJQmpDENe-53" target="K7TAK-xbUGXbJQmpDENe-57">
          <mxGeometry relative="1" as="geometry" />
        </mxCell>
        <mxCell id="K7TAK-xbUGXbJQmpDENe-77" style="edgeStyle=orthogonalEdgeStyle;rounded=0;orthogonalLoop=1;jettySize=auto;html=1;exitX=0.5;exitY=1;exitDx=0;exitDy=0;entryX=0.5;entryY=1;entryDx=0;entryDy=0;" edge="1" parent="K7TAK-xbUGXbJQmpDENe-51" source="K7TAK-xbUGXbJQmpDENe-53" target="K7TAK-xbUGXbJQmpDENe-60">
          <mxGeometry relative="1" as="geometry">
            <mxPoint x="411" y="161.01999999999998" as="targetPoint" />
            <Array as="points">
              <mxPoint x="270" y="210" />
              <mxPoint x="610" y="210" />
            </Array>
          </mxGeometry>
        </mxCell>
        <mxCell id="K7TAK-xbUGXbJQmpDENe-84" value="error" style="edgeLabel;html=1;align=center;verticalAlign=middle;resizable=0;points=[];" vertex="1" connectable="0" parent="K7TAK-xbUGXbJQmpDENe-77">
          <mxGeometry x="-0.6083" y="2" relative="1" as="geometry">
            <mxPoint as="offset" />
          </mxGeometry>
        </mxCell>
        <mxCell id="K7TAK-xbUGXbJQmpDENe-53" value="Divide text to chunks" style="rounded=1;whiteSpace=wrap;html=1;arcSize=24;fillColor=#ffffc0;strokeColor=#ff0000;shadow=0;comic=0;labelBackgroundColor=none;fontFamily=Verdana;fontSize=12;fontColor=#000000;align=center;" vertex="1" parent="K7TAK-xbUGXbJQmpDENe-51">
          <mxGeometry x="210" y="90" width="120" height="60" as="geometry" />
        </mxCell>
        <mxCell id="K7TAK-xbUGXbJQmpDENe-75" style="edgeStyle=orthogonalEdgeStyle;rounded=0;orthogonalLoop=1;jettySize=auto;html=1;exitX=0.75;exitY=0;exitDx=0;exitDy=0;" edge="1" parent="K7TAK-xbUGXbJQmpDENe-51" source="K7TAK-xbUGXbJQmpDENe-55" target="K7TAK-xbUGXbJQmpDENe-62">
          <mxGeometry relative="1" as="geometry">
            <mxPoint x="429.96000000000004" y="160" as="targetPoint" />
            <Array as="points">
              <mxPoint x="120" y="55" />
            </Array>
          </mxGeometry>
        </mxCell>
        <mxCell id="K7TAK-xbUGXbJQmpDENe-111" value="error" style="edgeLabel;html=1;align=center;verticalAlign=middle;resizable=0;points=[];" vertex="1" connectable="0" parent="K7TAK-xbUGXbJQmpDENe-75">
          <mxGeometry x="-0.6516" relative="1" as="geometry">
            <mxPoint as="offset" />
          </mxGeometry>
        </mxCell>
        <mxCell id="K7TAK-xbUGXbJQmpDENe-55" value="modem to PDU state" style="whiteSpace=wrap;html=1;fontFamily=Verdana;fillColor=#ffffc0;strokeColor=#ff0000;fontColor=#000000;rounded=1;arcSize=24;shadow=0;comic=0;labelBackgroundColor=none;" vertex="1" parent="K7TAK-xbUGXbJQmpDENe-51">
          <mxGeometry x="30" y="90" width="120" height="60" as="geometry" />
        </mxCell>
        <mxCell id="K7TAK-xbUGXbJQmpDENe-61" value="" style="edgeStyle=orthogonalEdgeStyle;rounded=0;orthogonalLoop=1;jettySize=auto;html=1;" edge="1" parent="K7TAK-xbUGXbJQmpDENe-51" source="K7TAK-xbUGXbJQmpDENe-57" target="K7TAK-xbUGXbJQmpDENe-60">
          <mxGeometry relative="1" as="geometry" />
        </mxCell>
        <mxCell id="K7TAK-xbUGXbJQmpDENe-57" value="send chunks" style="whiteSpace=wrap;html=1;fontFamily=Verdana;fillColor=#ffffc0;strokeColor=#ff0000;fontColor=#000000;rounded=1;arcSize=24;shadow=0;comic=0;labelBackgroundColor=none;" vertex="1" parent="K7TAK-xbUGXbJQmpDENe-51">
          <mxGeometry x="380" y="90" width="120" height="60" as="geometry" />
        </mxCell>
        <mxCell id="K7TAK-xbUGXbJQmpDENe-68" value="" style="edgeStyle=orthogonalEdgeStyle;rounded=0;orthogonalLoop=1;jettySize=auto;html=1;exitX=0.5;exitY=0;exitDx=0;exitDy=0;" edge="1" parent="K7TAK-xbUGXbJQmpDENe-51" source="K7TAK-xbUGXbJQmpDENe-60" target="K7TAK-xbUGXbJQmpDENe-62">
          <mxGeometry relative="1" as="geometry">
            <mxPoint x="330" y="440" as="targetPoint" />
            <Array as="points">
              <mxPoint x="610" y="55" />
            </Array>
          </mxGeometry>
        </mxCell>
        <mxCell id="K7TAK-xbUGXbJQmpDENe-60" value="modem to TEXT state" style="whiteSpace=wrap;html=1;fontFamily=Verdana;fillColor=#ffffc0;strokeColor=#ff0000;fontColor=#000000;rounded=1;arcSize=24;shadow=0;comic=0;labelBackgroundColor=none;" vertex="1" parent="K7TAK-xbUGXbJQmpDENe-51">
          <mxGeometry x="550" y="90" width="120" height="60" as="geometry" />
        </mxCell>
        <mxCell id="K7TAK-xbUGXbJQmpDENe-62" value="" style="ellipse;html=1;shape=startState;fillColor=#000000;strokeColor=#ff0000;rounded=1;shadow=0;comic=0;labelBackgroundColor=none;fontFamily=Verdana;fontSize=12;fontColor=#000000;align=center;direction=south;" vertex="1" parent="K7TAK-xbUGXbJQmpDENe-51">
          <mxGeometry x="550" y="40" width="30" height="30" as="geometry" />
        </mxCell>
        <mxCell id="K7TAK-xbUGXbJQmpDENe-95" style="edgeStyle=orthogonalEdgeStyle;rounded=1;orthogonalLoop=1;jettySize=auto;html=1;exitX=0.75;exitY=1;exitDx=0;exitDy=0;strokeColor=#FF0000;curved=0;" edge="1" parent="1" source="K7TAK-xbUGXbJQmpDENe-93" target="K7TAK-xbUGXbJQmpDENe-51">
          <mxGeometry relative="1" as="geometry">
            <mxPoint x="435" y="450" as="targetPoint" />
            <Array as="points">
              <mxPoint x="435" y="480" />
              <mxPoint x="435" y="480" />
            </Array>
          </mxGeometry>
        </mxCell>
        <mxCell id="K7TAK-xbUGXbJQmpDENe-96" value="try" style="edgeLabel;html=1;align=center;verticalAlign=middle;resizable=0;points=[];" vertex="1" connectable="0" parent="K7TAK-xbUGXbJQmpDENe-95">
          <mxGeometry x="-0.04" y="-2" relative="1" as="geometry">
            <mxPoint as="offset" />
          </mxGeometry>
        </mxCell>
        <mxCell id="K7TAK-xbUGXbJQmpDENe-97" style="edgeStyle=orthogonalEdgeStyle;rounded=1;orthogonalLoop=1;jettySize=auto;html=1;exitX=0;exitY=0.5;exitDx=0;exitDy=0;curved=0;strokeColor=#FF0000;" edge="1" parent="1" source="K7TAK-xbUGXbJQmpDENe-93" target="K7TAK-xbUGXbJQmpDENe-99">
          <mxGeometry relative="1" as="geometry">
            <mxPoint x="80" y="280" as="targetPoint" />
            <Array as="points">
              <mxPoint x="280" y="370" />
              <mxPoint x="280" y="370" />
            </Array>
          </mxGeometry>
        </mxCell>
        <mxCell id="K7TAK-xbUGXbJQmpDENe-98" value="expired" style="edgeLabel;html=1;align=center;verticalAlign=middle;resizable=0;points=[];" vertex="1" connectable="0" parent="K7TAK-xbUGXbJQmpDENe-97">
          <mxGeometry x="-0.2095" y="1" relative="1" as="geometry">
            <mxPoint as="offset" />
          </mxGeometry>
        </mxCell>
        <mxCell id="K7TAK-xbUGXbJQmpDENe-93" value="check try count" style="whiteSpace=wrap;html=1;fontFamily=Verdana;fillColor=#ffffc0;strokeColor=#ff0000;fontColor=#000000;rounded=1;arcSize=24;shadow=0;comic=0;labelBackgroundColor=none;" vertex="1" parent="1">
          <mxGeometry x="345" y="340" width="120" height="60" as="geometry" />
        </mxCell>
        <mxCell id="K7TAK-xbUGXbJQmpDENe-99" value="Error handling" style="swimlane;whiteSpace=wrap;html=1;" vertex="1" parent="1">
          <mxGeometry x="50" y="140" width="160" height="500" as="geometry">
            <mxRectangle x="50" y="140" width="120" height="30" as="alternateBounds" />
          </mxGeometry>
        </mxCell>
        <mxCell id="K7TAK-xbUGXbJQmpDENe-104" value="" style="edgeStyle=orthogonalEdgeStyle;rounded=0;orthogonalLoop=1;jettySize=auto;html=1;" edge="1" parent="K7TAK-xbUGXbJQmpDENe-99" source="K7TAK-xbUGXbJQmpDENe-101" target="K7TAK-xbUGXbJQmpDENe-103">
          <mxGeometry relative="1" as="geometry" />
        </mxCell>
        <mxCell id="K7TAK-xbUGXbJQmpDENe-101" value="move sms file to &quot;failed&quot; directory" style="whiteSpace=wrap;html=1;fontFamily=Verdana;fillColor=#ffffc0;strokeColor=#ff0000;fontColor=#000000;rounded=1;arcSize=24;shadow=0;comic=0;labelBackgroundColor=none;" vertex="1" parent="K7TAK-xbUGXbJQmpDENe-99">
          <mxGeometry x="20" y="90" width="120" height="60" as="geometry" />
        </mxCell>
        <mxCell id="K7TAK-xbUGXbJQmpDENe-106" value="" style="edgeStyle=orthogonalEdgeStyle;rounded=0;orthogonalLoop=1;jettySize=auto;html=1;" edge="1" parent="K7TAK-xbUGXbJQmpDENe-99" source="K7TAK-xbUGXbJQmpDENe-103" target="K7TAK-xbUGXbJQmpDENe-105">
          <mxGeometry relative="1" as="geometry" />
        </mxCell>
        <mxCell id="K7TAK-xbUGXbJQmpDENe-103" value="process sms file by Tsmemail" style="whiteSpace=wrap;html=1;fontFamily=Verdana;fillColor=#ffffc0;strokeColor=#ff0000;fontColor=#000000;rounded=1;arcSize=24;shadow=0;comic=0;labelBackgroundColor=none;" vertex="1" parent="K7TAK-xbUGXbJQmpDENe-99">
          <mxGeometry x="20" y="180" width="120" height="60" as="geometry" />
        </mxCell>
        <mxCell id="K7TAK-xbUGXbJQmpDENe-108" value="" style="edgeStyle=orthogonalEdgeStyle;rounded=0;orthogonalLoop=1;jettySize=auto;html=1;" edge="1" parent="K7TAK-xbUGXbJQmpDENe-99" source="K7TAK-xbUGXbJQmpDENe-105" target="K7TAK-xbUGXbJQmpDENe-107">
          <mxGeometry relative="1" as="geometry" />
        </mxCell>
        <mxCell id="K7TAK-xbUGXbJQmpDENe-105" value="send message to&amp;nbsp;&lt;div&gt;Web-UI&lt;/div&gt;" style="whiteSpace=wrap;html=1;fontFamily=Verdana;fillColor=#ffffc0;strokeColor=#ff0000;fontColor=#000000;rounded=1;arcSize=24;shadow=0;comic=0;labelBackgroundColor=none;" vertex="1" parent="K7TAK-xbUGXbJQmpDENe-99">
          <mxGeometry x="20" y="270" width="120" height="60" as="geometry" />
        </mxCell>
        <mxCell id="K7TAK-xbUGXbJQmpDENe-110" style="edgeStyle=orthogonalEdgeStyle;rounded=0;orthogonalLoop=1;jettySize=auto;html=1;exitX=0.5;exitY=1;exitDx=0;exitDy=0;" edge="1" parent="K7TAK-xbUGXbJQmpDENe-99" source="K7TAK-xbUGXbJQmpDENe-107" target="K7TAK-xbUGXbJQmpDENe-109">
          <mxGeometry relative="1" as="geometry" />
        </mxCell>
        <mxCell id="K7TAK-xbUGXbJQmpDENe-107" value="send message to&amp;nbsp;&lt;div&gt;Event log&lt;/div&gt;" style="whiteSpace=wrap;html=1;fontFamily=Verdana;fillColor=#ffffc0;strokeColor=#ff0000;fontColor=#000000;rounded=1;arcSize=24;shadow=0;comic=0;labelBackgroundColor=none;" vertex="1" parent="K7TAK-xbUGXbJQmpDENe-99">
          <mxGeometry x="20" y="360" width="120" height="60" as="geometry" />
        </mxCell>
        <mxCell id="K7TAK-xbUGXbJQmpDENe-109" value="" style="ellipse;html=1;shape=startState;fillColor=#000000;strokeColor=#ff0000;rounded=1;shadow=0;comic=0;labelBackgroundColor=none;fontFamily=Verdana;fontSize=12;fontColor=#000000;align=center;direction=south;" vertex="1" parent="K7TAK-xbUGXbJQmpDENe-99">
          <mxGeometry x="65" y="460" width="30" height="30" as="geometry" />
        </mxCell>
        <mxCell id="K7TAK-xbUGXbJQmpDENe-102" style="edgeStyle=orthogonalEdgeStyle;rounded=0;orthogonalLoop=1;jettySize=auto;html=1;exitX=1;exitY=0.5;exitDx=0;exitDy=0;" edge="1" parent="K7TAK-xbUGXbJQmpDENe-99" source="K7TAK-xbUGXbJQmpDENe-100" target="K7TAK-xbUGXbJQmpDENe-101">
          <mxGeometry relative="1" as="geometry" />
        </mxCell>
        <mxCell id="K7TAK-xbUGXbJQmpDENe-100" value="" style="ellipse;html=1;shape=startState;fillColor=#000000;strokeColor=#ff0000;rounded=1;shadow=0;comic=0;labelBackgroundColor=none;fontFamily=Verdana;fontSize=12;fontColor=#000000;align=center;direction=south;" vertex="1" parent="K7TAK-xbUGXbJQmpDENe-99">
          <mxGeometry x="65" y="30" width="30" height="30" as="geometry" />
        </mxCell>
      </root>
    </mxGraphModel>
  </diagram>
</mxfile>
